<?xml version="1.0" encoding="UTF-8"?>
<svg xmlns="http://www.w3.org/2000/svg" version="1.1" viewBox="0 0 4954.9 2802.6">
  <defs>
    <style>
      .cls-1 {
        fill: #fff;
      }
    </style>
  </defs>
  <!-- Generator: Adobe Illustrator 28.7.1, SVG Export Plug-In . SVG Version: 1.2.0 Build 142)  -->
  <g>
    <g id="Layer_2">
      <g id="Layer_1-2">
        <path class="cls-1" d="M2658.3,2005.7c-10.5,22.2-21.6,44-33.3,65.5-97,178.8-231.8,333.9-393.8,454.8-15.8,11.8-31.8,23.2-48,34.2-146.7,100.2-313.4,173.1-492.9,211.5h-.1c-29.9,6.5-60,11.9-90.6,16.2-66.2,9.8-134,14.7-202.9,14.7-149.7,0-294.1-23.5-429.3-67.4h-.1c-31.4-10-62.1-21.2-92.3-33.5h-.1c-176.7-71.1-335.2-177.3-467.5-309.9-31-31.1-60.5-63.5-88.5-97.5h-.1C119.6,2052.7,0,1743.4,0,1406s11.6-207.7,33.8-306.3c12-54.1,27.3-107,45.6-158.6h0c42.8-121.9,102.2-235.8,175.5-339.5C507.7,243.4,924.8,9.4,1396.7,9.4s236.8,15.2,348.1,43.8c19.4,16,37.8,33.4,54.8,51.9,87.9,95.8,141.4,223.3,141.4,363.4s0,8.4-.1,12.5c-1.3.7-2.6,1.4-3.9,2.1-1.9-153.4-92.2-299.3-197.1-396.3-118.1-32.9-217.3-42-343.2-42s-83.2,2-124.3,5.7l17.3,1.9c50.5,5.4,100,17.8,146.7,36.6l69.2,27.5c23.1,9.7,45.6,20.7,67.2,33.1,43.8,24.2,82.4,55.7,122.3,85-41.6-26.9-81.9-56.1-126.4-77.2-22.1-10.9-44.8-20.4-67.9-28.5l-70.5-23.3c-46.3-15.5-94.4-24.5-142.7-26.8l-157.1-8c-262.2,51.7-503.3,179.7-696.5,372.9-115.3,115.3-207.4,247.6-273.8,391.4,182.8-218.2,430.5-380,713.4-455.9,116.5-31.2,239-47.9,365.3-47.9s337.8,31,490.6,88c-141.2-47.5-292.3-73.3-449.5-73.3s-280.4,21.3-410.3,60.8c-318.9,97-589.8,304.2-768.1,577.3h0c-43.8,134.7-66.5,276.7-66.5,422.2,0,292.8,91.9,571.6,262,803.3-21.6-97.9-32.9-199.5-32.9-303.8,0-502.9,263.7-944.1,660.6-1192.6,94.3-59.3,196.3-107.5,304-143.2-106.1,39.5-206.1,91.6-298.2,154.3-372.1,253-616.4,679.9-616.4,1163.8s22.6,289.1,64.6,422.4c0,.1.1.1.1.1,17.8,20,36,39.3,55,58.3,119.6,119.6,257.6,214.2,407.6,281.1-129.4-212.7-203.8-462.5-203.8-729.6,0-403.2,169.6-766.7,441.5-1023.2,99.3-93.8,212.1-173.2,335.4-234.9-119,65.8-227.6,148.5-322.3,244.5-250.2,254-404.5,602.5-404.5,987.1s90.2,567.1,244.5,792.7h.1c146.8,53.3,303.5,80.9,464.3,80.9s115.2-3.5,171.6-10.7c-246.6-253.2-398.3-599.2-398.3-980.5s84.5-549,229.5-770.2c8.7-13.4,17.8-26.6,26.9-39.6-8.2,13.1-16.2,26.3-24,39.6-121.6,208.1-191.3,450.2-191.3,708.5,0,405.8,171.8,771.5,446.8,1028.1,177.8-34.4,346.1-103.8,496.4-204.9-320.4-258-525.6-653.4-525.6-1096.6s3.1-108.4,9.3-161.4c-2.3,31.9-3.4,64.2-3.4,96.7,0,461.9,222.7,872,566.6,1128.3,55.5-40.8,108.3-86.1,158-135.7,91.6-91.6,168.6-194,229.6-304.3-378.1-79.3-662.8-389.5-676.2-763.9,46.1,354.5,336.6,638.4,709.4,700h.4c11.9,1.9,23.8,3.7,35.9,5.2h0ZM1884.6,470.2c-7.9-7.5-15-15.9-21.6-24.7-6.6-8.9-12.4-18.4-18.1-28.1-5.9-9.6-12.1-19.2-18.2-28.8-12.5-19-24.7-38.2-37.6-56.9,10,20.4,20.9,40.3,31.3,60.5l16.1,30c5,10.2,10.7,20.3,17.1,30,12.6,19.6,29.7,36.7,49.2,49.8,19.6,13,40.6,22.5,61.3,32,10.5,4.7,20.8,8.8,30.4,14,9.7,5.2,19,11.1,27.9,17.6,17.9,12.9,33.7,28.6,48.3,45.5,3.6,4.2,7.2,8.6,10.6,13,3.6,4.6,6.7,8.4,8.7,13,4.1,9.4,6.3,21.2,10.2,32,7.5,21.8,18.9,42.2,33.5,59.7-5.7-9.9-11.4-19.6-15.9-29.9-4.5-10.3-7.9-21-10.6-31.8-3.1-10.8-4.1-21.7-8.2-33.5-1.1-2.9-2.4-5.8-4.2-8.5-1.7-2.8-3.3-4.8-5-7.3-3.3-4.7-6.7-9.3-10.3-13.9-14-18.3-30.4-35.1-48.8-49.4-9.2-7.1-19.2-13.5-29.4-19.1-10.3-5.7-21.1-10.2-31.2-14.8-20.7-9.1-41.1-18.4-59.6-30.1-9.2-5.9-17.9-12.5-25.8-20h0ZM2176.8,752.4c18.7,19.6,39.2,37.8,59.1,55.5,19.7,18.1,38.8,37,57.2,56.5,17.3,18.5,34.4,37.2,50.6,56.5-7.3,16.2-14.5,32.5-21.6,48.8l-17.6,40.2c-9.8-18-19.5-36-29.5-53.9-10.7-19.5-21.7-38.9-32.6-58.3l37.2,8.7c15.3,3.6,30.7,7.1,46.1,10.4-14.9-5-30-9.9-45-14.6l-45.1-14.2-1.2-.4-25.8-19.3c-5.9-4.3-11.3-8.8-17.7-12.9-5.1-4.1-10.6-9.5-15.5-14.5-5-5.2-9.5-10.7-13.7-16.6l-13.4-17.2-26.8-34.3,25.4,35.4,12.7,17.7c4,6,8.4,12,13.2,17.5,5,5.6,9.6,10.6,15.6,15.9,5.7,4,11.3,9,16.9,13.5l26.1,21.3c11,22.5,22.2,45,33.5,67.4,11.2,22.6,22.9,45,34.3,67.4l2.9,5.8h0c-3.3,9.8-16.2,68.6-16.5,94.9-22-.4-43.9-.7-65.9-.8-24.2,0-48.3-.2-72.6.3-40.6,1.6-83.7,7.2-123.8,3.4l-11.4-67.6s-4-24.4-4-24.6l123.1-25.8-121,8.8c3-9.8,6.6-19.8,10.2-29.6,4.6-12.1,9.3-24.1,14.2-36.1.4-1.1.9-2.2,1.5-3.2,1.2-2.5,2.5-4.9,3.8-7.3.6-1.2,1.3-2.3,1.9-3.5.6-1.1,1-2.1,2-3,1.8-1.7,3.8-2.2,6.1-2.7,2.7-.6,5.5-1.1,8.3-1.5,25.4-3.8,51.5-5.5,77.3-6.9-26-.5-51.9-.8-78.1,1.1-3.3.2-6.6.7-9.9,1.1-1.7.4-3.3.5-5.1,1.1l-2.7.9c-1,.4-2.6,1.7-3.6,2.8-3.6,6.1-6.3,11.7-9.3,17.6-5.8,11.7-11.5,23.4-17.1,35.2-5.5,11.9-10.9,23.5-15.6,36.5-.6,1.5-1.1,3.4-1.6,5.3-.6.7-.8,7.3-.5,7.6l.9,9.7,1.8,19.3,7.1,77.3h.2s1.7,17,1.7,17l20.7-14.2,50.8-8.8c24.1-.6,48.2-2.9,72.3-2.8,46.4,1,92.9,3.9,139.3,5.8,2.9,21.8,5.5,43.7,7.6,65.5,1.1,11.8,2.1,23.5,2.5,35.2.7,11.8-.3,22.2-2.1,34.1-3.4,23.2-7.9,46.6-12.4,69.9l-10.8,53.6c-22.5-20.3-45.4-39.9-69.5-58.5-14.3-10.9-28.7-21.7-45.1-31-7.9-4.8-18.1-8.9-26.9-11.1-9-2.4-17.9-4.3-26.8-5.9-35.3-6.9-71-10.4-103.9-19.3-17.3-4.6-35.6-9.1-55.1-9.4-4.8,0-9.8.2-14.6.6l-13.3,1.3-26.5,2.6-26.5,2.6c-9,.9-17.4,1.8-25.6,2-16.7.3-33.4-1.4-49.5-5.6-4.1-1-8-2.2-12-3.6l-12.5-4.4-24.9-8.8c-16.7-6.4-35.9-11.6-54.6-12.9-18.9-1.5-38,0-56.4,4.5l-51.7,13.8-80.7,21.7c14.6-27.7,30.8-54.9,47.8-81.3,21.4-32.8,44.8-64.3,71-93.3,25.9-29.1,55.6-54.9,86.6-78.9,31.2-23.8,63.7-46.3,97.5-66.1l10.5-6.1-6.8-1c-3.3-.5-6.8-.7-10.2-.7-72.1-.2-120.4-4.2-167-28.1,40.4,27.6,64.8,39.4,148.1,37.7-31.5,17.3-50.7,32.9-79.7,54.2-32.1,23.5-63.1,49.1-90.5,78.4-27.6,29.1-52.3,60.6-75,93.5-22.7,32.9-43.1,67-61.2,103.2l-9.9,19.9,21.8-5.7,103.2-26.9,51.3-13.3c16.2-3.8,32.9-5,49.4-3.6,16.8,1.4,32.2,5.6,48.6,12l25.2,9.2,12.6,4.6c4.4,1.5,8.9,2.9,13.5,4.1,18.2,4.9,37.1,7.2,56,6.8,9.5-.2,18.8-1.4,27.5-2.3l26.5-2.8,26.5-2.8,13.2-1.4c4.1-.4,7.9-.7,12-.6,16.1,0,32.8,3.8,49.7,8.2,35.8,9.3,71.2,12.3,105.7,18.8,8.6,1.5,17.1,3.3,25.2,5.4,8.4,2.2,14.8,4.7,22.2,9,14.6,8.2,28.9,18.6,42.8,29.1,27.9,21.2,54.9,44.2,81.5,67.3l12.7,11.1,2.9-16.2,12.7-70.4c4-23.5,8-47,11.1-70.9,1.6-11.7,2.6-25,1.4-37-.8-12.1-2.1-24-3.5-35.9-2.9-23.8-6.3-47.3-10.1-70.9l-.2-1.4c3.8-46.2,10.2-90.4,13.4-96.4l.9-10.3,23.1-51.2c7.9-17.6,15.8-35.2,23.6-52.9l1.8-4.2-2.9-3.4c-17.6-20.9-35.9-40.9-55-60.1-19.1-19.3-38.9-37.8-59.7-55.3l-31.3-25.7c-10.4-8.5-20.4-17.5-30.4-26.4-10-9-19.7-18.2-28.9-28-9-9.9-18.2-19.9-24.8-31.7,5.4,12.5,13.6,23.5,22,34.1,8.5,10.6,17.6,20.7,26.9,30.5h0ZM1904.7,612.9c2.7-.5,5.4-.7,8.1-.9-3.3-6.8-2.8-10.3-6.2-18.2-3.6-8.2-2.7-26.8-5-35,4.2,7.6,7.3,18.8,12.5,25.7,4.3,5.8,12.1,19.6,22.2,28.1l9,1,2.9.7c13.8,1.2,27.6,2.5,41.4,4-12.9.5-25.8.8-38.8,1l4.8,9.3c11.6,22,9.7,55.8-4,79.5l-6.5,11.3c12.7,13.7,25.3,27.4,37.6,41.4-13.9-11.6-27.4-23.6-40.9-35.6l-.3.6-10.6-10.2c-12.2-10.3-25.5-18.5-40.2-23.8-4.4-1.6-8.8-2.9-13.5-4l-14.1-3.4c-9.3-2.1-18.7-3.5-28.2-4.3-18.7-1.6-38.4-.4-58-.6l-35.1-.4,32.2-13.7c17.2-7.3,34.3-14.9,51.6-22,17.3-7.2,34.6-14.4,51.9-21.2l13-5.2,3.3-1.3c1.2-.4,2.6-.8,3.7-1.2,2.4-.7,4.8-1.2,7.3-1.6h0ZM1906.6,621.6c-2.1.5-4.2,1.2-6.3,1.9-1.1.4-1.9.7-2.9,1.2l-3.2,1.5-12.6,6c-16.8,8.1-33.8,16-50.7,23.7-6.7,3.1-13.4,6.1-20.1,9.1,8.4,0,17.1.4,25.5,1.5,10,1.2,20,3,29.7,5.6,4.9,1.2,9.7,2.8,14.3,4.2,4.8,1.5,9.7,3.2,14.4,5.2,11.6,4.7,22.2,11.5,31.7,19.5,5.9-7.4,10.6-15.7,12.6-25,1.7-7.6,2.1-15.4,1.4-23-.7-7.3-3.1-14.3-6.4-20.8l-6.4-12.6h-8.1c-4.4.3-8.8.9-13,2h0ZM1363.1,428.6c2.4-1.2,5.7-2.6,8.8-3.9l9.5-3.7c6.4-2.4,12.9-4.6,19.4-6.6,13.1-4,26.4-7.3,39.9-9.8,27-5.4,54.4-7.7,81.4-5.4,13.6,1.1,26.9,3.9,40.3,7.3,13.5,3.6,26.9,7.8,40.3,12.1,13.4,4.2,26.7,8.9,40.1,13.5,6.7,2.3,13.3,4.7,19.9,7.2l9.9,3.8c3.2,1.4,6.8,2.4,9.4,4.6-2.3-2.7-5.7-4.2-8.6-6.1l-9.3-5.3c-6.2-3.4-12.6-6.6-18.9-9.8-12.7-6.4-25.6-12.2-38.6-18-13.1-5.6-26.3-10.9-39.8-15.8-13.6-5-27.9-8.6-42.4-10.9-29.1-4.7-58.7-2.8-87.3,1.7-14.3,2.5-28.5,5.8-42.5,9.9-7,2-13.9,4.3-20.8,6.8-3.4,1.2-6.8,2.5-10.2,3.9-3.4,1.4-6.6,2.8-10.5,4.8-7.4,3.8-14.5,9.2-20,16.4-5.4,7.1-9.2,16.1-9.6,25.4-.6,9.3,1.8,18.3,5.7,26,3.7,7.6,10,14.5,14.5,19.2,10.7,11.4,22.8,19.9,34.9,27.9,12.2,7.9,24.6,15.2,37.4,21.8,12.7,6.6,25.6,12.7,38.6,18.6,6.5,2.9,13.1,5.6,19.7,8.3,3.1,1.2,7.1,2.9,11,3.8,3.9.9,8,1.3,12,1.2,4,0,8-.7,11.8-1.9l4.5-1.4c-.5.6-1,1.1-1.4,1.7-6.4,9.4-7.7,20.5-7.3,30.5.7,9.9,2.7,19.4,5.7,28.5,3.6,15.2,7.3,30.3,11.9,45.3,4.5,15.1,9.5,30,15.8,44.7-.5-16-2.4-31.6-4.7-47.2-2.3-15.6-5.4-31-8.7-46.3v-.3c0,0-.2-.4-.2-.4-2.8-8.4-4.9-16.9-5.7-25.2-.9-8.3-.1-16.6,3.3-23,1.7-3.2,4.2-5.9,7.5-7.9,3-1.8,7.7-3.9,11.8-5.8,5.6-2.8,11.3-5.6,16.8-8.7l1.1-.4c6.8-2.1,13.4-4.6,20.3-6-14.2.8-28.2,3.7-42.1,6l-20.9,3.9-10.4,2c-3.1.5-6.2.7-9.2.5-3.1-.2-6.1-.8-8.9-1.7-2.9-.9-5.4-2.3-8.7-4l-18.6-9.8c-12.4-6.6-24.6-13.4-36.5-20.6-23.7-14.2-47.7-29.7-65.3-48.3-5.2-5.6-8.4-9.4-11-14.4-2.4-4.9-3.6-10-3.3-14.9.6-9.8,7.7-18.5,18-23.6h0Z"/>
        <g>
          <path class="cls-1" d="M3016.6,562.1c0-11.2-2-16.8-6.1-16.8-11.7,2-23.6,4.1-35.6,6.1-12,2-19.5,3.3-22.6,3.8-20.4,11.7-44.2,21-71.5,27.9-27.3,6.9-59.3,10.3-96,10.3s-77.2-7.3-110.9-21.8c-33.6-14.5-62.7-34.8-87.2-60.8s-43.5-57.1-57-93.3c-13.5-36.2-20.3-75.7-20.3-118.5s7-82.3,21-118.5c14-36.2,33.5-67.3,58.5-93.3,25-26,54.8-46.3,89.5-60.8,34.7-14.5,72.6-21.8,113.9-21.8s67.8,3.7,93.3,11.1c25.5,7.4,47.9,17.7,67.3,31,15.3,9.2,28.3,15,39,17.6,10.7,2.6,16.6,1.8,17.6-2.3.5-2.5,1-4.7,1.5-6.5.5-1.8,1-3.4,1.5-5,.5-2,.8-3.6.8-4.6l4.6-2.3v134.6c-2.6-1-4.1-1.5-4.6-1.5h-1.5c0-1-.3-2.3-.8-3.8-.5-1-1-2.2-1.5-3.4-.5-1.3-1-2.9-1.5-5-3.1-9.2-8.3-19.6-15.7-31.4-7.4-11.7-16.3-23.3-26.8-34.8-10.5-11.5-21.9-22.3-34.4-32.5-12.5-10.2-25.4-18.3-38.6-24.5-13.3-6.1-27.7-10.8-43.2-14.1-15.6-3.3-32.8-5-51.6-5-31.1,0-59.5,6.9-85.3,20.6-25.8,13.8-47.9,33-66.5,57.7-18.6,24.7-33.1,54.2-43.6,88.3-10.5,34.2-15.7,71.6-15.7,112.4s5,78.4,14.9,112.8,23.8,64,41.7,88.7c17.8,24.7,39.1,44,63.9,57.7,24.7,13.8,51.9,20.7,81.4,20.7s46.6-2.2,66.5-6.5c19.9-4.3,38-10.6,54.3-18.7h-.8c11.2-5.6,22.3-13,33.3-22.2,11-9.2,21-18.8,30.2-29.1,9.2-10.2,16.9-20.5,23.3-31,6.4-10.4,10.8-19.5,13.4-27.1.5-2,1-3.8,1.5-5.4.5-1.5,1-2.8,1.5-3.8.5-1.5.8-2.5.8-3.1s.2-.8.8-.8,1.3-.2,2.3-.8h1.5l.8-.8v136.1l-1.5-6.1h0Z"/>
          <path class="cls-1" d="M3178.8,427.5c-9.2,30.6-15,55.7-17.6,75.3-2.6,19.6-2.4,35.1.4,46.3,2.8,11.2,7.8,19,14.9,23.3,7.1,4.3,15.8,6.5,26,6.5h16.1v1.5c0,.5.1,1,.4,1.5.2.5.4,1,.4,1.5,0,1,.1,1.8.4,2.3.2.5.4,1,.4,1.5v.8h-186.6v-.8c0-1.5.2-2.8.8-3.8v-3.1c0-.5.2-1,.8-1.5h17.6c8.1,0,16.3-2.2,24.5-6.5,8.1-4.3,16.8-12.1,26-23.3,9.2-11.2,18.6-26.8,28.3-46.6,9.7-19.9,20.1-45.4,31.4-76.5l130-381.6-2.3-7.7c10.7-1,20.9-5,30.6-11.9,9.7-6.9,16.8-15.2,21.4-24.9h7.6l12.2,36.7,145.3,436.6c7.6,21.4,14.8,39,21.4,52.8,6.6,13.8,12.7,24.6,18.4,32.5,5.6,7.9,10.8,13.4,15.7,16.4,4.8,3.1,9.6,4.6,14.1,4.6h19.1v1.5c0,1.5.2,2.6.8,3.1v3.8c0,.5.2.8.8.8h-204.9v-.8c0-.5.1-1,.4-1.5.2-.5.4-1.3.4-2.3l1.5-4.6h16.8c8.1,0,15-1.9,20.6-5.7,5.6-3.8,9.2-11,10.7-21.4,1.5-10.4.6-24.8-2.7-43.2-3.3-18.4-9.8-42.1-19.5-71.1h.8l-19.1-58.9h-208l-16.1,48.2h0ZM3397.5,363.2l-97.9-299.8-99.4,299.8h197.3,0Z"/>
          <path class="cls-1" d="M3632.4,588.8c0-.5.4-1.9,1.1-4.2.8-2.3,1.4-3.9,1.9-5h9.2c7.1,0,13.8-1,19.9-3.1,6.1-2,11.3-5.8,15.7-11.5,4.3-5.6,7.8-13.4,10.3-23.3,2.5-9.9,3.8-22.8,3.8-38.6V100.9c0-15.8-1.3-28.7-3.8-38.6-2.6-9.9-6-17.7-10.3-23.3-4.3-5.6-9.6-9.4-15.7-11.5-6.1-2-12.8-3.1-19.9-3.1h-9.2l-3.1-9.2h218.5c29,0,55.5,4,79.7,11.9,24.1,7.9,45,19,62.5,33.3,17.5,14.3,31.1,31.3,40.8,51.2,9.7,19.9,14.5,41.6,14.5,65s-6,46.8-17.9,65.4c-11.9,18.6-28.5,34-49.6,46.3-21.1,12.2-46.4,21.4-75.9,27.5s-61.8,9.2-96.9,9.2h-41.9v178.2c0,15.8,1.2,28.7,3.8,38.6,2.5,9.9,5.9,17.7,10.2,23.3,4.3,5.6,9.4,9.4,15.5,11.5,6.1,2,12.6,3.1,19.6,3.1h9.1l3,9.2h-195ZM3808.2,308.9c25.4,0,48.6-2.9,69.7-8.8,21.1-5.8,39.2-14.9,54.5-27.1,15.2-12.2,27.2-27.3,35.8-45.4,8.6-18,12.9-39.3,12.9-63.7s-3.7-38.1-11.1-54.9c-7.4-16.8-17.6-31.3-30.9-43.5-13.2-12.2-28.8-21.6-46.9-28.2-18-6.6-38-9.9-59.8-9.9h-66.3v281.4h41.9,0Z"/>
          <path class="cls-1" d="M2910.3,1208.8h-406.8c0-.5.4-1.9,1.1-4.2.8-2.3,1.4-3.9,1.9-5h9.9c7.1,0,13.6-1,19.5-3.1,5.9-2,11-5.8,15.3-11.5,4.3-5.6,7.8-13.4,10.3-23.3,2.5-9.9,3.8-22.8,3.8-38.6v-402.2c0-15.8-1.3-28.7-3.8-38.6-2.6-9.9-6-17.7-10.3-23.3-4.3-5.6-9.4-9.4-15.3-11.5-5.9-2-12.4-3.1-19.5-3.1h-9.9l-3.1-9.2h195.8c-.5.5-.8,1-.8,1.5s-.1.9-.4,1.2-.4.9-.4,1.9-.1,1.7-.4,1.9-.4.7-.4,1.2v1.5h-9.9c-7.1,0-13.8,1-19.9,3.1-6.1,2-11.4,5.9-15.7,11.5-4.3,5.6-7.8,13.4-10.3,23.3-2.6,9.9-3.8,22.8-3.8,38.6v426.7c0,7.2.6,13.7,1.9,19.5,1.3,5.9,4.1,11,8.4,15.3,4.3,4.3,10.6,7.8,18.7,10.3,8.1,2.6,18.9,3.8,32.1,3.8h11.5c39.8,0,72.8-2,99-6.1,26.2-4.1,47.5-9.8,63.9-17.2,16.3-7.4,28.5-16.1,36.7-26,8.1-9.9,13.8-21,16.8-33.3l3.1-9.9c0-.5.2-.8.8-.8,1.5,0,2.8-.2,3.8-.8,1.5,0,2.7-.1,3.4-.4.8-.2,1.4-.4,1.9-.4-4.6,15.8-8.9,31.6-13,47.4-4.1,15.8-8.2,31.6-12.2,47.4l-3.8,12.2h0Z"/>
          <path class="cls-1" d="M2965.1,1204.5c.8-2.3,1.4-3.9,1.9-5h9.9c14.3,0,26-4.6,35.2-13.8s13.8-28,13.8-56.6v-414.5c0-28.5-4.6-47.4-13.8-56.6-9.2-9.2-20.9-13.8-35.2-13.8h-9.9l-3.1-9.2h195.8c-.5.5-.8,1-.8,1.5s-.1.9-.4,1.2-.4.9-.4,1.9-.1,1.7-.4,1.9-.4.7-.4,1.2v1.5h-9.9c-14.8,0-26.8,4.6-35.9,13.8-9.2,9.2-13.8,28-13.8,56.6v414.5c0,28.6,4.6,47.4,13.8,56.6,9.2,9.2,21.1,13.8,35.9,13.8h9.9v1.5c0,.5.1,1,.4,1.5.2.5.4,1,.4,1.5,0,1,.1,1.8.4,2.3.2.5.4,1,.4,1.5s.2.8.8.8h-195.8c0-.5.4-1.9,1.1-4.2h0Z"/>
          <path class="cls-1" d="M3206.5,922c0-42.8,7.1-82.3,21.4-118.5,14.3-36.2,34.2-67.3,59.7-93.3s55.9-46.3,91.1-60.8c35.2-14.5,74-21.8,116.4-21.8s83.2,7.3,119.4,21.8c36.2,14.5,67.5,34.8,93.8,60.8s46.7,57.1,61.2,93.3c14.6,36.2,21.8,75.7,21.8,118.5s-7.5,82.3-22.6,118.5c-15.1,36.2-36,67.3-62.8,93.3s-58.8,46.3-96.1,60.8c-37.3,14.5-78.1,21.8-122.5,21.8s-79.1-7.3-113.3-21.8c-34.2-14.5-63.8-34.8-88.8-60.8-25-26-44.4-57.1-58.2-93.3-13.8-36.2-20.7-75.7-20.7-118.5h0ZM3490.2,1200.3c32.6,0,62.6-6.9,89.9-20.7,27.3-13.8,50.7-32.9,70.4-57.3,19.6-24.5,34.9-53.8,45.9-87.9,11-34.2,16.4-71.6,16.4-112.4s-5.5-78.2-16.4-112.4c-11-34.2-26.1-63.5-45.5-87.9-19.4-24.5-42.6-43.6-69.6-57.3-27-13.8-56.6-20.7-88.7-20.7s-58.5,6.9-83.7,20.7-47,32.9-65.4,57.3c-18.4,24.5-32.6,53.8-42.8,87.9-10.2,34.2-15.3,71.6-15.3,112.4s5.1,78.3,15.3,112.4c10.2,34.2,24.3,63.5,42.4,87.9,18.1,24.5,39.6,43.6,64.6,57.3,25,13.8,52.5,20.7,82.6,20.7h0Z"/>
          <path class="cls-1" d="M3882.6,684.9c-13.3-16.8-23.2-27.9-29.8-33.3-6.6-5.3-12.2-8-16.8-8h-21.4v-1.5c0-.5-.1-.9-.4-1.2-.3-.2-.4-.9-.4-1.9s-.1-1.7-.4-1.9c-.3-.2-.4-.6-.4-1.2v-1.5h120.1l330.4,434.4,15.3,19.9-1.5-345.7c-1-20.4-3.1-37-6.1-49.7-3.1-12.7-7.3-22.8-12.6-30.2-5.4-7.4-11.6-12.5-18.7-15.3-7.1-2.8-14.8-4.2-22.9-4.2h-9.9l-3.1-9.2h166.7c0,.5-.4,1.9-1.1,4.2s-1.4,4-1.9,5h-9.9c-8.2,0-15.7,1.3-22.6,3.8-6.9,2.6-12.9,7.4-18,14.5-5.1,7.2-9.3,16.8-12.6,29.1-3.3,12.2-5.5,27.8-6.5,46.7l-4.6,470.3h-14.5l-73.4-97.1-289.1-380.8,1.5,327.3c0,29.1,1.3,52.8,3.8,71.1,2.5,18.3,6.2,32.8,11.1,43.2,4.8,10.5,10.4,17.6,16.8,21.4,6.4,3.8,13.4,5.7,21,5.7h17.6l1.5,4.6v3.8c0,.5.2.8.8.8h-165.2c0-.5.1-1.8.4-3.8.2-2,.6-3.6,1.1-4.6h17.6c7.6,0,14.6-2,21-6.1,6.4-4.1,12-11.8,16.8-23.3,4.8-11.5,8.5-27,11.1-46.7,2.5-19.6,3.8-45.2,3.8-76.8l.8-340.3-16.1-20.7.8-.8h0Z"/>
          <path class="cls-1" d="M2524.9,1828.7c0-.5.4-1.9,1.1-4.2.8-2.3,1.4-3.9,1.9-5h9.2c7.1,0,13.8-1,19.9-3.1,6.1-2,11.3-5.8,15.7-11.5,4.3-5.6,7.8-13.4,10.3-23.3,2.5-9.9,3.8-22.8,3.8-38.6v-402.2c0-15.8-1.3-28.7-3.8-38.6-2.6-9.9-6-17.7-10.3-23.3-4.3-5.6-9.6-9.4-15.7-11.5-6.1-2-12.8-3.1-19.9-3.1h-9.2l-3.1-9.2h218.5c29,0,55.5,4,79.7,11.8,24.1,7.9,45,19,62.5,33.3,17.5,14.3,31.1,31.3,40.8,51.2,9.7,19.9,14.5,41.6,14.5,65s-6,46.8-17.9,65.4c-11.9,18.6-28.5,34-49.6,46.3-21.1,12.2-46.4,21.4-75.9,27.5s-61.8,9.2-96.9,9.2h-41.9v178.2c0,15.8,1.2,28.7,3.8,38.6,2.5,9.9,5.9,17.7,10.2,23.3,4.3,5.6,9.4,9.4,15.5,11.5,6,2,12.6,3.1,19.6,3.1h9.1l3,9.2h-195ZM2700.6,1548.8c25.4,0,48.6-2.9,69.7-8.8,21.1-5.8,39.2-14.9,54.5-27.1,15.2-12.2,27.2-27.3,35.8-45.4,8.6-18,12.9-39.3,12.9-63.7s-3.7-38.1-11.1-54.9c-7.4-16.8-17.6-31.3-30.9-43.5-13.2-12.2-28.8-21.6-46.9-28.2-18-6.6-38-9.9-59.8-9.9h-66.3v281.4h41.9Z"/>
          <path class="cls-1" d="M2967,1541.9c0-42.8,7.1-82.3,21.4-118.5,14.3-36.2,34.2-67.3,59.7-93.3s55.9-46.3,91.1-60.8c35.2-14.5,74-21.8,116.4-21.8s83.2,7.3,119.4,21.8c36.2,14.5,67.5,34.8,93.8,60.8s46.7,57.1,61.2,93.3c14.6,36.2,21.8,75.7,21.8,118.5s-7.5,82.3-22.6,118.5c-15.1,36.2-36,67.3-62.8,93.3s-58.8,46.3-96.1,60.8c-37.3,14.5-78.1,21.8-122.5,21.8s-79.1-7.3-113.3-21.8c-34.2-14.5-63.8-34.8-88.8-60.8-25-26-44.4-57.1-58.2-93.3-13.8-36.2-20.7-75.7-20.7-118.5h0ZM3250.7,1820.3c32.6,0,62.6-6.9,89.9-20.7,27.3-13.8,50.7-32.9,70.4-57.3,19.6-24.5,34.9-53.8,45.9-87.9,11-34.2,16.4-71.6,16.4-112.4s-5.5-78.2-16.4-112.4c-11-34.2-26.1-63.5-45.5-87.9-19.4-24.5-42.6-43.6-69.6-57.3-27-13.8-56.6-20.7-88.7-20.7s-58.5,6.9-83.7,20.7-47,32.9-65.4,57.3c-18.4,24.5-32.6,53.8-42.8,87.9-10.2,34.2-15.3,71.6-15.3,112.4s5.1,78.3,15.3,112.4c10.2,34.2,24.3,63.5,42.4,87.9,18.1,24.5,39.6,43.6,64.6,57.3,25,13.8,52.5,20.7,82.6,20.7h0Z"/>
          <path class="cls-1" d="M3600.7,1824.5c.8-2.3,1.4-3.9,1.9-5h9.9c14.3,0,26-4.6,35.2-13.8,9.2-9.2,13.8-28,13.8-56.6v-414.5c0-28.6-4.6-47.4-13.8-56.6-9.2-9.2-20.9-13.8-35.2-13.8h-9.9l-3.1-9.2h195.8c-.5.5-.8,1-.8,1.5s-.1.9-.4,1.2-.4.9-.4,1.9-.1,1.7-.4,1.9-.4.7-.4,1.2v1.5h-9.9c-14.8,0-26.8,4.6-35.9,13.8-9.2,9.2-13.8,28-13.8,56.6v414.5c0,28.6,4.6,47.4,13.8,56.6,9.2,9.2,21.1,13.8,35.9,13.8h9.9v1.5c0,.5.1,1,.4,1.5.2.5.4,1,.4,1.5,0,1,.1,1.8.4,2.3.2.5.4,1,.4,1.5s.2.8.8.8h-195.8c0-.5.4-1.9,1.1-4.2h0Z"/>
          <path class="cls-1" d="M3881.1,1304.8c-13.3-16.8-23.2-27.9-29.8-33.3-6.6-5.3-12.2-8-16.8-8h-21.4v-1.5c0-.5-.1-.9-.4-1.2-.3-.2-.4-.9-.4-1.9s-.1-1.7-.4-1.9c-.3-.2-.4-.6-.4-1.2v-1.5h120.1l330.3,434.3,15.3,19.9-1.5-345.7c-1-20.4-3.1-37-6.1-49.7-3.1-12.7-7.3-22.8-12.6-30.2-5.4-7.4-11.6-12.5-18.7-15.3-7.1-2.8-14.8-4.2-22.9-4.2h-9.9l-3.1-9.2h166.7c0,.5-.4,1.9-1.1,4.2s-1.4,4-1.9,5h-9.9c-8.2,0-15.7,1.3-22.6,3.8-6.9,2.6-12.9,7.4-18,14.5-5.1,7.2-9.3,16.8-12.6,29.1-3.3,12.2-5.5,27.8-6.5,46.7l-4.6,470.3h-14.5l-73.4-97.1-289.1-380.8,1.5,327.3c0,29.1,1.3,52.8,3.8,71.1,2.5,18.3,6.2,32.8,11.1,43.2,4.8,10.4,10.4,17.6,16.8,21.4,6.4,3.8,13.4,5.7,21,5.7h17.6l1.5,4.6v3.8c0,.5.2.8.8.8h-165.2c0-.5.1-1.8.4-3.8.2-2,.6-3.6,1.1-4.6h17.6c7.6,0,14.6-2,21-6.1,6.4-4.1,12-11.8,16.8-23.3,4.8-11.5,8.5-27,11.1-46.7,2.5-19.6,3.8-45.2,3.8-76.8l.8-340.3-16.1-20.7.8-.8h0Z"/>
          <path class="cls-1" d="M4572.5,1829.4c0-.5.4-1.9,1.1-4.2s1.4-3.9,1.9-5h9.9c14.3,0,26-4.6,35.2-13.8,9.2-9.2,13.8-28,13.8-56.6v-476.4h-99.4c-24,0-44.1,1.3-60.4,3.8-16.3,2.6-29.6,6-39.8,10.3-10.2,4.3-18,9.6-23.3,15.7s-9.3,12.8-11.9,19.9l-3.8,9.2c-.5.5-1,.8-1.5.8h-3.1c-1,.5-2.3.8-3.8.8h-1.5c4.1-10.2,7.9-20.4,11.5-30.6,3.6-10.2,7.4-20.4,11.5-30.6h-.8v-17.6h6.9l11.5-32.1h4.6c1,.5,2,.8,3.1.8h1.5l-2.3,7.7c-1.5,3.1-1.1,6,1.1,8.8,2.3,2.8,7.4,5.2,15.3,7.3,7.9,2,19.2,3.7,34,5,14.8,1.3,34.1,1.9,58.1,1.9h257.7c24.5,0,44.1-.6,58.9-1.9,14.8-1.3,26.1-2.9,34-5,7.9-2,13-4.5,15.3-7.3s2.7-5.7,1.1-8.8l-2.3-7.7h.8c1,0,2-.2,3.1-.8h4.6c2,5.1,3.9,10.2,5.7,15.3,1.8,5.1,3.7,10.5,5.7,16.1h6.9v17.6c4.1,10.2,7.8,20.4,11.1,30.6,3.3,10.2,6.8,20.4,10.3,30.6h-1.5c-1,0-2-.2-3.1-.8h-3.8c-.5,0-.8-.2-.8-.8l-3.8-9.2c-2.6-7.1-6.5-13.8-11.9-19.9s-13.1-11.3-23.3-15.7c-10.2-4.3-23.5-7.8-39.8-10.3-16.3-2.6-36.5-3.8-60.4-3.8h-99.4v476.4c0,28.6,4.6,47.4,13.8,56.6,9.2,9.2,20.9,13.8,35.2,13.8h9.9v1.5c0,.5.1,1,.4,1.5.2.5.4,1,.4,1.5,0,1,.1,1.8.4,2.3.2.5.4,1,.4,1.5s.2.8.8.8h-195l-.8.8h0Z"/>
        </g>
      </g>
    </g>
  </g>
</svg>