<?xml version="1.0" encoding="UTF-8"?>
<svg id="Layer_2" data-name="Layer 2" xmlns="http://www.w3.org/2000/svg" viewBox="0 0 4954.85 2802.61">
  <defs>
    <style>
      .cls-1 {
        fill: #091935;
        stroke-width: 0px;
      }
    </style>
  </defs>
  <g id="Layer_1-2" data-name="Layer 1">
    <path class="cls-1" d="M2658.26,2005.68c-10.47,22.23-21.64,43.99-33.29,65.52-97.04,178.79-231.84,333.94-393.82,454.75-15.76,11.76-31.76,23.17-47.99,34.23-146.68,100.22-313.36,173.15-492.86,211.49h-.12c-29.88,6.47-59.99,11.88-90.57,16.23-66.22,9.76-133.98,14.7-202.91,14.7-149.74,0-294.07-23.53-429.34-67.4h-.12c-31.41-10-62.11-21.17-92.34-33.52h-.12c-176.68-71.05-335.24-177.26-467.45-309.95-31.05-31.05-60.46-63.52-88.46-97.51l-.12-.12C119.63,2052.73,0,1743.37,0,1406.02c0-105.28,11.65-207.73,33.76-306.3,12-54.11,27.29-107.04,45.64-158.56v-.12c42.82-121.74,102.22-235.73,175.5-339.36C507.68,243.39,924.79,9.43,1396.71,9.43c120.22,0,236.78,15.17,348.06,43.76,19.41,16,37.76,33.41,54.81,51.87,87.87,95.75,141.39,223.26,141.39,363.35,0,4.12,0,8.35-.12,12.47-1.29.71-2.59,1.41-3.88,2.12-1.88-153.39-92.19-299.33-197.11-396.26-118.1-32.94-217.29-42.02-343.15-42.02-41.78,0-83.24,1.96-124.35,5.65l17.32,1.86c50.47,5.4,100,17.82,146.7,36.57l69.17,27.5c23.06,9.73,45.55,20.72,67.24,33.06,43.85,24.18,82.42,55.74,122.28,85.02-41.6-26.92-81.92-56.05-126.4-77.22-22.06-10.88-44.77-20.35-67.88-28.52l-70.47-23.28c-46.26-15.46-94.4-24.47-142.69-26.76l-157.07-8.04c-262.22,51.69-503.28,179.67-696.5,372.89-115.27,115.27-207.38,247.61-273.84,391.35,182.79-218.2,430.52-380.05,713.41-455.92,116.45-31.17,239.02-47.87,365.35-47.87,172.56,0,337.83,31.05,490.62,87.99-141.15-47.52-292.3-73.28-449.45-73.28-142.68,0-280.42,21.29-410.28,60.81-318.89,97.04-589.78,304.18-768.11,577.31v.12c-43.76,134.57-66.46,276.54-66.46,422.05,0,292.77,91.87,571.55,261.96,803.28-21.64-97.87-32.94-199.5-32.94-303.83,0-502.86,263.72-944.08,660.6-1192.62,94.34-59.28,196.32-107.51,303.95-143.15-106.1,39.52-206.08,91.63-298.19,154.33-372.06,253.02-616.37,679.89-616.37,1163.81,0,147.27,22.58,289.13,64.58,422.4,0,.12.12.12.12.12,17.76,20,35.99,39.29,55.05,58.34,119.63,119.63,257.6,214.2,407.58,281.13-129.39-212.67-203.85-462.51-203.85-729.64,0-403.23,169.62-766.7,441.46-1023.24,99.28-93.75,212.08-173.15,335.36-234.9-119.04,65.75-227.61,148.45-322.3,244.55-250.19,253.96-404.52,602.49-404.52,987.13,0,294.07,90.22,567.08,244.55,792.69h.12c146.8,53.28,303.48,80.93,464.28,80.93,57.87,0,115.16-3.53,171.62-10.7-246.55-253.25-398.29-599.19-398.29-980.54,0-284.31,84.46-548.97,229.49-770.22,8.7-13.41,17.76-26.58,26.94-39.64-8.23,13.06-16.23,26.35-24,39.64-121.63,208.08-191.26,450.16-191.26,708.47,0,405.81,171.85,771.52,446.75,1028.06,177.85-34.35,346.06-103.75,496.39-204.91-320.42-257.96-525.56-653.42-525.56-1096.64,0-54.58,3.06-108.45,9.29-161.39-2.35,31.88-3.41,64.22-3.41,96.69,0,461.92,222.67,871.97,566.61,1128.28,55.52-40.82,108.33-86.1,157.97-135.74,91.63-91.63,168.56-193.97,229.61-304.3-378.05-79.28-662.83-389.46-676.24-763.87,46.11,354.53,336.65,638.36,709.41,700h.35c11.88,1.88,23.76,3.65,35.88,5.18ZM1884.63,470.18c-7.92-7.48-14.97-15.93-21.63-24.73-6.6-8.89-12.41-18.35-18.13-28.14-5.92-9.65-12.11-19.23-18.2-28.82-12.54-18.99-24.65-38.21-37.56-56.94,10.03,20.41,20.87,40.33,31.27,60.48l16.05,29.99c5,10.2,10.73,20.32,17.13,30.02,12.61,19.56,29.71,36.73,49.2,49.83,19.57,13.04,40.61,22.53,61.3,31.99,10.52,4.67,20.78,8.83,30.4,14,9.7,5.16,18.96,11.11,27.86,17.58,17.9,12.86,33.68,28.6,48.29,45.46,3.65,4.22,7.18,8.57,10.64,12.97,3.59,4.64,6.74,8.36,8.72,13.05,4.1,9.42,6.26,21.19,10.19,31.96,7.54,21.77,18.94,42.24,33.5,59.66-5.69-9.86-11.41-19.63-15.9-29.94-4.54-10.26-7.94-20.96-10.65-31.82-3.06-10.82-4.11-21.74-8.16-33.54-1.08-2.91-2.42-5.84-4.16-8.51-1.72-2.76-3.31-4.82-4.97-7.26-3.32-4.69-6.71-9.33-10.26-13.88-14.01-18.31-30.38-35.07-48.84-49.39-9.25-7.13-19.15-13.45-29.4-19.09-10.33-5.67-21.07-10.18-31.25-14.79-20.66-9.11-41.14-18.37-59.63-30.15-9.23-5.9-17.89-12.54-25.82-20.01ZM2176.76,752.4c18.7,19.56,39.18,37.75,59.15,55.51,19.72,18.14,38.76,37.04,57.25,56.46,17.27,18.46,34.43,37.24,50.56,56.54-7.31,16.21-14.5,32.47-21.63,48.76l-17.56,40.16c-9.77-17.99-19.49-36.01-29.48-53.88-10.74-19.52-21.66-38.94-32.63-58.33l37.22,8.72c15.34,3.61,30.72,7.13,46.15,10.42-14.95-5.04-29.97-9.86-45.01-14.58l-45.11-14.21-1.18-.37-25.84-19.34c-5.94-4.29-11.34-8.83-17.72-12.92-5.08-4.13-10.62-9.48-15.51-14.53-5.01-5.18-9.48-10.72-13.74-16.63l-13.41-17.19-26.84-34.32,25.42,35.37,12.68,17.69c3.97,6.05,8.37,12.04,13.23,17.53,4.99,5.56,9.63,10.64,15.61,15.88,5.68,3.97,11.26,9.02,16.89,13.48l26.08,21.33c11.03,22.55,22.16,45.04,33.47,67.43,11.22,22.59,22.86,44.95,34.3,67.42l2.95,5.79-.02.06c-3.32,9.75-16.23,68.51-16.48,94.85-21.96-.45-43.91-.66-65.87-.76-24.19-.08-48.33-.22-72.6.33-40.58,1.6-83.68,7.2-123.83,3.43l-11.41-67.64s-3.97-24.39-4-24.55l123.14-25.75-120.98,8.75c3-9.79,6.59-19.76,10.24-29.59,4.55-12.08,9.31-24.12,14.23-36.08.45-1.09.95-2.17,1.46-3.23,1.18-2.46,2.48-4.86,3.77-7.26.63-1.17,1.26-2.34,1.88-3.51.59-1.12,1.02-2.13,1.96-3.02,1.75-1.66,3.79-2.18,6.06-2.68,2.74-.6,5.5-1.14,8.28-1.55,25.43-3.82,51.46-5.49,77.34-6.92-25.98-.52-51.9-.84-78.06,1.08-3.28.24-6.57.65-9.9,1.14-1.72.37-3.3.49-5.14,1.07l-2.74.88c-1.04.4-2.62,1.68-3.61,2.75-3.56,6.11-6.29,11.7-9.31,17.58-5.85,11.65-11.54,23.36-17.05,35.19-5.46,11.93-10.95,23.55-15.55,36.48-.59,1.54-1.11,3.42-1.6,5.3-.62.67-.77,7.28-.5,7.6l.89,9.68,1.78,19.35,7.09,77.31.15-.02,1.66,16.98,20.73-14.21,50.83-8.82c24.13-.58,48.25-2.95,72.26-2.75,46.35,1.01,92.87,3.86,139.31,5.85,2.9,21.78,5.53,43.67,7.62,65.49,1.12,11.76,2.06,23.54,2.53,35.16.72,11.77-.33,22.25-2.14,34.09-3.44,23.22-7.92,46.59-12.36,69.87l-10.84,53.64c-22.47-20.28-45.41-39.89-69.47-58.53-14.33-10.94-28.73-21.69-45.06-31.04-7.86-4.76-18.12-8.88-26.94-11.1-9.04-2.42-17.95-4.3-26.81-5.95-35.27-6.87-70.96-10.37-103.94-19.31-17.31-4.62-35.62-9.12-55.11-9.43-4.83-.1-9.82.17-14.59.61l-13.26,1.31-26.52,2.62-26.52,2.62c-9.04.88-17.4,1.85-25.64,1.97-16.65.35-33.38-1.41-49.52-5.64-4.05-1.01-8.01-2.25-12-3.55l-12.47-4.42-24.94-8.84c-16.67-6.45-35.92-11.61-54.62-12.88-18.88-1.49-37.99.05-56.37,4.54l-51.73,13.85-80.67,21.73c14.57-27.71,30.8-54.94,47.81-81.35,21.39-32.78,44.79-64.28,70.96-93.27,25.9-29.12,55.55-54.95,86.6-78.92,31.18-23.77,63.66-46.32,97.51-66.1l10.5-6.14-6.79-.95c-3.35-.47-6.81-.7-10.19-.7-72.1-.15-120.36-4.21-167.04-28.08,40.43,27.57,64.76,39.39,148.14,37.68-31.5,17.33-50.73,32.87-79.72,54.16-32.11,23.51-63.06,49.1-90.52,78.43-27.59,29.06-52.29,60.63-74.96,93.51-22.73,32.95-43.13,67.04-61.17,103.25l-9.94,19.94,21.79-5.67,103.17-26.87,51.34-13.29c16.16-3.81,32.92-5.01,49.45-3.57,16.79,1.4,32.22,5.56,48.63,12.01l25.22,9.17,12.61,4.58c4.45,1.5,8.95,2.94,13.51,4.13,18.21,4.89,37.13,7.21,55.99,6.75,9.53-.24,18.83-1.41,27.46-2.31l26.49-2.84,26.5-2.84,13.25-1.42c4.06-.4,7.95-.65,12.01-.61,16.14.09,32.75,3.84,49.72,8.25,35.8,9.29,71.21,12.32,105.71,18.79,8.61,1.53,17.12,3.27,25.25,5.37,8.39,2.17,14.79,4.65,22.23,8.96,14.59,8.18,28.88,18.57,42.84,29.09,27.9,21.25,54.94,44.24,81.48,67.35l12.72,11.08,2.94-16.22,12.74-70.36c4-23.52,8.02-46.97,11.07-70.88,1.62-11.68,2.59-25.02,1.45-37.01-.8-12.13-2.07-24.04-3.5-35.92-2.9-23.76-6.34-47.32-10.14-70.92l-.23-1.4c3.84-46.24,10.18-90.43,13.39-96.43l.92-10.31,23.12-51.18c7.93-17.6,15.84-35.22,23.56-52.92l1.83-4.21-2.86-3.39c-17.63-20.91-35.85-40.86-55.02-60.12-19.1-19.26-38.91-37.85-59.72-55.32l-31.28-25.67c-10.4-8.51-20.39-17.46-30.43-26.39-9.99-8.97-19.72-18.24-28.89-28.05-8.98-9.92-18.18-19.88-24.79-31.66,5.35,12.47,13.63,23.46,22.03,34.06,8.49,10.59,17.58,20.67,26.95,30.48ZM1904.74,612.9c2.68-.46,5.38-.74,8.08-.9-3.33-6.85-2.75-10.35-6.2-18.25-3.6-8.25-2.69-26.76-5.03-35.03,4.16,7.58,7.35,18.75,12.5,25.73,4.28,5.79,12.13,19.59,22.22,28.09l9.04.97,2.86.72c13.79,1.21,27.58,2.49,41.36,4.04-12.93.51-25.85.78-38.76.99l4.81,9.33c11.56,22.01,9.68,55.83-3.97,79.54l-6.54,11.34c12.67,13.66,25.3,27.37,37.6,41.42-13.88-11.64-27.43-23.6-40.94-35.61l-.35.61-10.58-10.24c-12.15-10.32-25.46-18.5-40.18-23.79-4.43-1.61-8.83-2.88-13.51-4.03l-14.07-3.38c-9.3-2.06-18.72-3.49-28.18-4.3-18.7-1.59-38.42-.37-58.04-.6l-35.13-.41,32.18-13.71c17.22-7.33,34.31-14.94,51.62-22.05,17.26-7.21,34.55-14.36,51.94-21.23l13.02-5.2,3.27-1.26c1.19-.43,2.55-.83,3.69-1.15,2.4-.67,4.84-1.22,7.29-1.64ZM1906.56,621.6c-2.12.53-4.21,1.18-6.26,1.92-1.08.4-1.94.72-2.92,1.16l-3.15,1.55-12.64,6.04c-16.83,8.12-33.77,15.96-50.73,23.74-6.66,3.1-13.37,6.1-20.07,9.09,8.39.08,17.08.43,25.51,1.5,10.02,1.2,19.96,3.05,29.72,5.56,4.92,1.22,9.67,2.78,14.33,4.19,4.77,1.45,9.71,3.18,14.39,5.18,11.55,4.73,22.22,11.52,31.73,19.46,5.93-7.36,10.56-15.74,12.58-24.96,1.67-7.6,2.13-15.41,1.44-23.03-.66-7.27-3.08-14.27-6.4-20.77l-6.45-12.64-8.06.1c-4.41.19-8.77.83-13.02,1.9ZM1363.13,428.61c2.36-1.25,5.66-2.57,8.81-3.85l9.54-3.7c6.39-2.41,12.86-4.64,19.41-6.64,13.09-4.05,26.44-7.33,39.92-9.84,26.97-5.43,54.36-7.71,81.42-5.39,13.56,1.12,26.93,3.85,40.26,7.3,13.48,3.6,26.89,7.8,40.27,12.13,13.43,4.22,26.74,8.86,40.07,13.49,6.67,2.32,13.3,4.73,19.91,7.2l9.9,3.76c3.17,1.43,6.78,2.41,9.37,4.65-2.28-2.7-5.71-4.2-8.64-6.13l-9.26-5.28c-6.25-3.38-12.57-6.6-18.92-9.79-12.7-6.36-25.63-12.22-38.64-17.97-13.06-5.63-26.28-10.91-39.76-15.79-13.63-4.99-27.93-8.58-42.42-10.86-29.11-4.74-58.74-2.75-87.32,1.73-14.32,2.48-28.5,5.76-42.47,9.87-6.99,2.03-13.91,4.31-20.78,6.8-3.44,1.21-6.84,2.55-10.23,3.93-3.36,1.44-6.63,2.75-10.53,4.77-7.42,3.84-14.51,9.2-19.98,16.39-5.45,7.12-9.16,16.15-9.63,25.42-.56,9.26,1.77,18.33,5.73,26.02,3.74,7.63,10.01,14.55,14.5,19.2,10.72,11.36,22.76,19.88,34.88,27.93,12.19,7.93,24.61,15.21,37.37,21.76,12.74,6.57,25.63,12.72,38.64,18.56,6.53,2.88,13.11,5.61,19.74,8.28,3.11,1.24,7.06,2.93,11.02,3.75,3.95.9,8,1.3,12.01,1.19,4.02-.09,8-.74,11.81-1.88l4.53-1.43c-.46.57-.96,1.11-1.37,1.71-6.4,9.42-7.68,20.54-7.29,30.5.65,9.94,2.74,19.44,5.7,28.5,3.56,15.18,7.3,30.32,11.86,45.28,4.5,15.08,9.48,30.05,15.85,44.7-.49-15.97-2.38-31.64-4.73-47.19-2.28-15.57-5.37-30.97-8.65-46.32l-.07-.32-.13-.39c-2.76-8.36-4.95-16.86-5.66-25.23-.94-8.33-.14-16.58,3.31-23.01,1.69-3.24,4.21-5.93,7.46-7.94,3.01-1.81,7.71-3.87,11.81-5.84,5.64-2.8,11.34-5.58,16.85-8.74l1.14-.36c6.75-2.06,13.42-4.64,20.33-5.95-14.21.79-28.16,3.69-42.13,5.99l-20.89,3.93-10.36,1.99c-3.06.52-6.15.66-9.2.47-3.05-.21-6.05-.79-8.92-1.74-2.91-.9-5.38-2.26-8.69-3.95l-18.59-9.82c-12.37-6.57-24.58-13.43-36.51-20.62-23.7-14.22-47.68-29.68-65.34-48.32-5.19-5.59-8.43-9.36-10.99-14.44-2.45-4.86-3.61-9.97-3.31-14.85.58-9.77,7.68-18.47,17.97-23.61Z"/>
    <g>
      <path class="cls-1" d="M3016.6,562.06c0-11.21-2.04-16.82-6.12-16.82-11.73,2.04-23.59,4.09-35.56,6.12-11.98,2.04-19.5,3.32-22.56,3.82-20.4,11.73-44.23,21.03-71.5,27.91-27.28,6.88-59.26,10.32-95.97,10.32-40.28,0-77.23-7.26-110.88-21.79-33.65-14.53-62.71-34.79-87.18-60.79s-43.47-57.09-56.97-93.29c-13.51-36.19-20.27-75.71-20.27-118.53s7-82.33,21.03-118.53c14.02-36.19,33.52-67.29,58.5-93.29,24.97-26,54.8-46.27,89.47-60.79,34.66-14.53,72.65-21.79,113.94-21.79,36.71,0,67.8,3.7,93.29,11.09,25.49,7.4,47.91,17.72,67.29,30.97,15.29,9.18,28.29,15.04,39,17.59,10.71,2.56,16.56,1.79,17.59-2.29.5-2.55,1.02-4.71,1.53-6.5.5-1.78,1.02-3.44,1.53-4.97.5-2.03.77-3.56.77-4.59l4.59-2.29v134.59c-2.56-1.02-4.09-1.53-4.59-1.53h-1.53c0-1.02-.26-2.29-.76-3.82-.51-1.02-1.03-2.16-1.53-3.44-.51-1.27-1.03-2.93-1.53-4.97-3.06-9.18-8.29-19.62-15.68-31.35-7.39-11.72-16.32-23.32-26.76-34.79-10.46-11.47-21.93-22.3-34.41-32.5-12.5-10.19-25.37-18.35-38.62-24.47-13.26-6.12-27.66-10.83-43.21-14.15-15.56-3.31-32.76-4.97-51.62-4.97-31.1,0-59.53,6.88-85.27,20.65-25.75,13.76-47.92,33.01-66.53,57.74-18.62,24.73-33.14,54.17-43.59,88.32-10.46,34.16-15.68,71.63-15.68,112.41s4.97,78.38,14.91,112.79c9.94,34.41,23.82,63.98,41.68,88.71,17.84,24.73,39.12,43.97,63.85,57.74,24.72,13.76,51.87,20.65,81.44,20.65,24.47,0,46.65-2.16,66.53-6.5,19.88-4.33,37.97-10.57,54.29-18.74h-.76c11.21-5.6,22.29-13,33.26-22.18,10.96-9.18,21.03-18.85,30.21-29.06,9.18-10.19,16.94-20.52,23.32-30.97,6.37-10.44,10.82-19.5,13.38-27.15.5-2.03,1.02-3.82,1.53-5.35.5-1.53,1.02-2.8,1.53-3.82.5-1.53.77-2.54.77-3.06s.25-.76.77-.76,1.27-.25,2.29-.76h1.53l.77-.77v136.12l-1.53-6.12Z"/>
      <path class="cls-1" d="M3178.83,427.47c-9.18,30.59-15.04,55.7-17.59,75.32-2.56,19.63-2.43,35.06.38,46.26,2.8,11.22,7.77,19,14.91,23.32,7.13,4.34,15.8,6.5,26,6.5h16.06v1.53c0,.51.12,1.03.38,1.53.25.51.38,1.03.38,1.53,0,1.03.12,1.79.38,2.29.25.51.38,1.03.38,1.53v.76h-186.59v-.76c0-1.53.25-2.8.76-3.82v-3.06c0-.5.25-1.02.76-1.53h17.59c8.15,0,16.31-2.16,24.47-6.5,8.15-4.33,16.82-12.1,26-23.32,9.18-11.21,18.6-26.76,28.29-46.65,9.68-19.88,20.13-45.37,31.35-76.47l130-381.59-2.29-7.65c10.71-1.02,20.9-4.97,30.59-11.85,9.68-6.88,16.82-15.16,21.41-24.85h7.65l12.24,36.71,145.29,436.65c7.65,21.41,14.78,39,21.41,52.76,6.62,13.76,12.74,24.6,18.35,32.5,5.6,7.91,10.83,13.38,15.68,16.44,4.84,3.06,9.56,4.59,14.15,4.59h19.12v1.53c0,1.53.25,2.56.76,3.06v3.82c0,.51.25.76.76.76h-204.94v-.76c0-.5.12-1.02.38-1.53.25-.5.38-1.27.38-2.29l1.53-4.59h16.82c8.15,0,15.03-1.91,20.65-5.74,5.6-3.82,9.18-10.96,10.71-21.41,1.53-10.44.63-24.85-2.68-43.21-3.32-18.35-9.82-42.06-19.5-71.12h.76l-19.12-58.88h-208l-16.06,48.18ZM3397.54,363.24l-97.88-299.77-99.41,299.77h197.29Z"/>
      <path class="cls-1" d="M3632.43,588.82c0-.5.38-1.91,1.15-4.21.76-2.29,1.4-3.94,1.91-4.97h9.18c7.13,0,13.76-1.02,19.88-3.06,6.12-2.03,11.34-5.85,15.68-11.47,4.33-5.6,7.77-13.38,10.32-23.32,2.54-9.94,3.82-22.81,3.82-38.62V100.94c0-15.8-1.28-28.68-3.82-38.62-2.56-9.94-6-17.71-10.32-23.32-4.34-5.6-9.56-9.43-15.68-11.47-6.12-2.03-12.75-3.06-19.88-3.06h-9.18l-3.06-9.18h218.48c28.98,0,55.54,3.96,79.7,11.85,24.15,7.91,45,19,62.54,33.26,17.54,14.28,31.14,31.35,40.79,51.24,9.66,19.88,14.49,41.56,14.49,65,0,24.98-5.97,46.78-17.92,65.38-11.95,18.62-28.47,34.03-49.57,46.26-21.1,12.24-46.4,21.41-75.89,27.53s-61.77,9.18-96.85,9.18h-41.94v178.18c0,15.81,1.25,28.68,3.78,38.62,2.51,9.94,5.92,17.72,10.19,23.32,4.28,5.62,9.44,9.44,15.49,11.47,6.05,2.04,12.59,3.06,19.64,3.06h9.06l3.02,9.18h-195ZM3808.17,308.94c25.39,0,48.63-2.92,69.71-8.77,21.08-5.84,39.24-14.86,54.49-27.08,15.25-12.2,27.18-27.33,35.82-45.37,8.63-18.04,12.95-39.27,12.95-63.69,0-19.82-3.69-38.13-11.05-54.9-7.36-16.78-17.65-31.27-30.86-43.48-13.21-12.2-28.83-21.6-46.86-28.21-18.04-6.61-37.97-9.92-59.81-9.92h-66.29v281.41h41.92Z"/>
      <path class="cls-1" d="M2910.3,1208.75h-406.82c0-.5.38-1.91,1.15-4.21.77-2.29,1.4-3.94,1.91-4.97h9.94c7.13,0,13.63-1.02,19.5-3.06,5.86-2.03,10.96-5.85,15.29-11.47,4.32-5.6,7.77-13.38,10.32-23.32,2.54-9.94,3.82-22.81,3.82-38.62v-402.24c0-15.8-1.28-28.68-3.82-38.62-2.56-9.94-6-17.71-10.32-23.32-4.34-5.6-9.44-9.43-15.29-11.47-5.87-2.03-12.37-3.06-19.5-3.06h-9.94l-3.06-9.18h195.77c-.51.51-.77,1.03-.77,1.53s-.13.9-.38,1.15c-.26.26-.38.9-.38,1.91s-.13,1.66-.38,1.91c-.26.26-.38.65-.38,1.15v1.53h-9.94c-7.14,0-13.76,1.03-19.88,3.06-6.12,2.04-11.35,5.87-15.68,11.47-4.34,5.62-7.78,13.38-10.32,23.32-2.56,9.94-3.82,22.82-3.82,38.62v426.71c0,7.15.63,13.65,1.91,19.5,1.27,5.87,4.07,10.97,8.41,15.29,4.33,4.34,10.58,7.78,18.74,10.32,8.15,2.56,18.86,3.82,32.12,3.82h11.47c39.77,0,72.77-2.03,99.03-6.12,26.25-4.07,47.53-9.81,63.85-17.21,16.31-7.38,28.54-16.06,36.71-26,8.15-9.94,13.77-21.03,16.82-33.26l3.06-9.94c0-.5.25-.77.77-.77,1.53,0,2.79-.25,3.82-.76,1.53,0,2.68-.12,3.44-.38.77-.25,1.4-.38,1.91-.38-4.59,15.81-8.93,31.62-13,47.41-4.09,15.81-8.16,31.62-12.23,47.41l-3.82,12.24Z"/>
      <path class="cls-1" d="M2965.1,1204.54c.76-2.29,1.4-3.94,1.91-4.97h9.94c14.27,0,26-4.59,35.18-13.77,9.18-9.18,13.77-28.03,13.77-56.59v-414.47c0-28.55-4.59-47.41-13.77-56.59-9.18-9.18-20.91-13.76-35.18-13.76h-9.94l-3.06-9.18h195.76c-.51.51-.76,1.03-.76,1.53s-.13.9-.38,1.15-.38.9-.38,1.91-.13,1.66-.38,1.91c-.26.26-.38.65-.38,1.15v1.53h-9.94c-14.79,0-26.76,4.59-35.94,13.76-9.18,9.18-13.76,28.04-13.76,56.59v414.47c0,28.56,4.59,47.41,13.76,56.59,9.18,9.18,21.15,13.77,35.94,13.77h9.94v1.53c0,.51.12,1.03.38,1.53.25.51.38,1.03.38,1.53,0,1.03.12,1.79.38,2.29.25.51.38,1.03.38,1.53s.25.76.76.76h-195.76c0-.5.38-1.91,1.15-4.21Z"/>
      <path class="cls-1" d="M3206.49,921.98c0-42.82,7.15-82.33,21.44-118.53,14.29-36.19,34.21-67.29,59.73-93.29,25.52-26,55.89-46.26,91.12-60.79,35.22-14.53,74.02-21.79,116.39-21.79s83.2,7.26,119.45,21.79c36.24,14.53,67.51,34.79,93.8,60.79,26.29,26,46.69,57.1,61.25,93.29,14.55,36.2,21.83,75.71,21.83,118.53s-7.54,82.34-22.59,118.53c-15.06,36.2-35.99,67.29-62.79,93.29-26.8,26-58.83,46.27-96.09,60.79-37.27,14.53-78.11,21.79-122.51,21.79-41.35,0-79.13-7.26-113.33-21.79-34.2-14.53-63.8-34.79-88.81-60.79-25.02-26-44.41-57.09-58.2-93.29-13.79-36.19-20.67-75.71-20.67-118.53ZM3490.19,1200.33c32.62,0,62.58-6.88,89.85-20.65,27.27-13.76,50.72-32.88,70.35-57.35,19.62-24.47,34.91-53.78,45.88-87.94,10.96-34.15,16.44-71.62,16.44-112.41s-5.48-78.25-16.44-112.41c-10.97-34.15-26.13-63.47-45.5-87.94-19.38-24.47-42.57-43.59-69.59-57.35-27.03-13.76-56.59-20.65-88.71-20.65s-58.5,6.88-83.74,20.65-47.03,32.88-65.38,57.35c-18.35,24.47-32.63,53.79-42.82,87.94-10.2,34.16-15.29,71.63-15.29,112.41s5.09,78.26,15.29,112.41c10.19,34.16,24.34,63.47,42.44,87.94,18.09,24.47,39.63,43.59,64.62,57.35,24.97,13.77,52.5,20.65,82.59,20.65Z"/>
      <path class="cls-1" d="M3882.61,684.92c-13.26-16.82-23.2-27.91-29.82-33.26-6.63-5.35-12.24-8.03-16.82-8.03h-21.41v-1.53c0-.5-.13-.88-.38-1.15-.26-.25-.38-.88-.38-1.91s-.13-1.65-.38-1.91c-.26-.25-.38-.63-.38-1.15v-1.53h120.06l330.35,434.35,15.29,19.88-1.53-345.65c-1.03-20.38-3.06-36.96-6.12-49.71-3.06-12.74-7.26-22.81-12.62-30.21-5.35-7.38-11.6-12.49-18.74-15.29-7.15-2.8-14.79-4.21-22.94-4.21h-9.94l-3.06-9.18h166.71c0,.51-.38,1.91-1.15,4.21s-1.41,3.96-1.91,4.97h-9.94c-8.16,0-15.68,1.28-22.56,3.82-6.88,2.56-12.88,7.4-17.97,14.53-5.1,7.15-9.31,16.82-12.62,29.06-3.32,12.24-5.48,27.79-6.5,46.65l-4.59,470.29h-14.53l-73.41-97.12-289.06-380.82,1.53,327.29c0,29.06,1.27,52.77,3.82,71.12,2.54,18.35,6.24,32.76,11.09,43.21,4.84,10.46,10.44,17.59,16.82,21.41,6.37,3.82,13.38,5.73,21.03,5.73h17.59l1.53,4.59v3.82c0,.51.25.76.77.76h-165.18c0-.5.12-1.78.38-3.82.25-2.03.63-3.56,1.15-4.59h17.59c7.65,0,14.65-2.03,21.03-6.12,6.37-4.07,11.97-11.85,16.82-23.32,4.84-11.47,8.53-27.02,11.09-46.65,2.54-19.62,3.82-45.24,3.82-76.85l.76-340.29-16.06-20.65.76-.76Z"/>
      <path class="cls-1" d="M2524.89,1828.67c0-.5.38-1.91,1.15-4.21.77-2.29,1.4-3.94,1.91-4.97h9.18c7.13,0,13.77-1.02,19.88-3.06,6.12-2.03,11.34-5.85,15.68-11.47,4.32-5.6,7.77-13.38,10.32-23.32,2.54-9.94,3.82-22.81,3.82-38.62v-402.24c0-15.8-1.28-28.68-3.82-38.62-2.56-9.94-6-17.71-10.32-23.32-4.34-5.6-9.56-9.43-15.68-11.47-6.12-2.03-12.75-3.06-19.88-3.06h-9.18l-3.06-9.18h218.48c28.98,0,55.54,3.96,79.7,11.85,24.15,7.91,45,19,62.54,33.26,17.54,14.28,31.14,31.35,40.79,51.24,9.66,19.88,14.49,41.56,14.49,65,0,24.98-5.97,46.78-17.92,65.38-11.95,18.62-28.47,34.03-49.57,46.27-21.1,12.23-46.4,21.41-75.89,27.53-29.49,6.12-61.77,9.18-96.85,9.18h-41.94v178.18c0,15.81,1.25,28.68,3.78,38.62,2.51,9.94,5.91,17.72,10.19,23.32,4.28,5.62,9.44,9.44,15.49,11.47,6.04,2.04,12.59,3.06,19.64,3.06h9.06l3.02,9.18h-195ZM2700.63,1548.79c25.39,0,48.63-2.92,69.71-8.77,21.08-5.84,39.24-14.86,54.48-27.08,15.25-12.2,27.18-27.33,35.82-45.37,8.63-18.04,12.95-39.28,12.95-63.69,0-19.82-3.69-38.13-11.05-54.9-7.36-16.78-17.65-31.27-30.86-43.48-13.21-12.2-28.83-21.6-46.86-28.21-18.04-6.61-37.97-9.92-59.81-9.92h-66.29v281.41h41.91Z"/>
      <path class="cls-1" d="M2967.01,1541.9c0-42.82,7.15-82.33,21.44-118.53,14.29-36.19,34.21-67.29,59.73-93.29,25.52-26,55.89-46.26,91.12-60.79,35.22-14.53,74.02-21.79,116.39-21.79s83.2,7.26,119.45,21.79c36.24,14.53,67.51,34.79,93.8,60.79,26.29,26,46.69,57.1,61.25,93.29,14.55,36.2,21.83,75.71,21.83,118.53s-7.54,82.34-22.59,118.53c-15.06,36.2-35.99,67.29-62.79,93.29-26.8,26-58.83,46.26-96.09,60.79-37.27,14.53-78.11,21.79-122.51,21.79-41.35,0-79.13-7.26-113.33-21.79-34.2-14.53-63.8-34.79-88.81-60.79-25.02-26-44.41-57.09-58.2-93.29-13.79-36.19-20.67-75.71-20.67-118.53ZM3250.72,1820.26c32.62,0,62.58-6.88,89.85-20.65,27.27-13.76,50.72-32.88,70.35-57.35,19.62-24.47,34.91-53.78,45.88-87.94,10.96-34.15,16.44-71.62,16.44-112.41s-5.48-78.25-16.44-112.41c-10.97-34.15-26.13-63.47-45.5-87.94-19.38-24.47-42.57-43.59-69.59-57.35-27.03-13.76-56.59-20.65-88.71-20.65s-58.5,6.88-83.74,20.65-47.03,32.88-65.38,57.35c-18.35,24.47-32.63,53.79-42.82,87.94-10.2,34.16-15.29,71.63-15.29,112.41s5.09,78.26,15.29,112.41c10.19,34.16,24.34,63.47,42.44,87.94,18.09,24.47,39.63,43.59,64.62,57.35,24.97,13.76,52.5,20.65,82.59,20.65Z"/>
      <path class="cls-1" d="M3600.69,1824.46c.76-2.29,1.4-3.94,1.91-4.97h9.94c14.27,0,26-4.59,35.18-13.76,9.18-9.18,13.77-28.03,13.77-56.59v-414.47c0-28.55-4.59-47.41-13.77-56.59-9.18-9.18-20.91-13.76-35.18-13.76h-9.94l-3.06-9.18h195.76c-.51.51-.76,1.03-.76,1.53s-.13.9-.38,1.15-.38.9-.38,1.91-.13,1.66-.38,1.91c-.26.26-.38.65-.38,1.15v1.53h-9.94c-14.79,0-26.76,4.59-35.94,13.76-9.18,9.18-13.76,28.04-13.76,56.59v414.47c0,28.56,4.59,47.41,13.76,56.59,9.18,9.18,21.15,13.76,35.94,13.76h9.94v1.53c0,.51.12,1.03.38,1.53.25.51.38,1.03.38,1.53,0,1.03.12,1.79.38,2.29.25.51.38,1.03.38,1.53s.25.76.76.76h-195.76c0-.5.38-1.91,1.15-4.21Z"/>
      <path class="cls-1" d="M3881.08,1304.84c-13.26-16.82-23.2-27.91-29.82-33.26-6.63-5.35-12.24-8.03-16.82-8.03h-21.41v-1.53c0-.5-.13-.88-.38-1.15-.26-.25-.38-.88-.38-1.91s-.13-1.65-.38-1.91c-.26-.25-.38-.63-.38-1.15v-1.53h120.06l330.35,434.35,15.29,19.88-1.53-345.65c-1.03-20.38-3.06-36.96-6.12-49.71-3.06-12.74-7.26-22.81-12.62-30.21-5.35-7.38-11.6-12.49-18.74-15.29-7.15-2.8-14.79-4.21-22.94-4.21h-9.94l-3.06-9.18h166.71c0,.51-.38,1.91-1.15,4.21s-1.41,3.96-1.91,4.97h-9.94c-8.16,0-15.68,1.28-22.56,3.82-6.88,2.56-12.88,7.4-17.97,14.53-5.1,7.15-9.31,16.82-12.62,29.06-3.32,12.24-5.48,27.79-6.5,46.65l-4.59,470.29h-14.53l-73.41-97.12-289.06-380.82,1.53,327.29c0,29.06,1.27,52.76,3.82,71.12,2.54,18.35,6.24,32.76,11.09,43.21,4.84,10.45,10.44,17.59,16.82,21.41,6.37,3.82,13.38,5.74,21.03,5.74h17.59l1.53,4.59v3.82c0,.51.25.76.77.76h-165.18c0-.5.12-1.78.38-3.82.25-2.03.63-3.56,1.15-4.59h17.59c7.65,0,14.65-2.03,21.03-6.12,6.37-4.07,11.97-11.85,16.82-23.32,4.84-11.47,8.53-27.02,11.09-46.65,2.54-19.62,3.82-45.24,3.82-76.85l.76-340.29-16.06-20.65.76-.76Z"/>
      <path class="cls-1" d="M4572.5,1829.43c0-.51.38-1.91,1.15-4.21s1.4-3.94,1.91-4.97h9.94c14.27,0,26-4.59,35.18-13.76,9.18-9.18,13.76-28.03,13.76-56.59v-476.41h-99.41c-23.97,0-44.1,1.28-60.41,3.82-16.32,2.56-29.57,6-39.76,10.32-10.2,4.34-17.97,9.56-23.32,15.68s-9.31,12.75-11.85,19.88l-3.82,9.18c-.51.51-1.03.76-1.53.76h-3.06c-1.03.51-2.29.77-3.82.77h-1.53c4.08-10.19,7.9-20.38,11.47-30.59,3.56-10.19,7.38-20.38,11.47-30.59h-.76v-17.59h6.88l11.47-32.12h4.59c1.02.51,2.03.76,3.06.76h1.53l-2.29,7.65c-1.53,3.06-1.15,6,1.15,8.79,2.29,2.81,7.38,5.23,15.29,7.26,7.9,2.04,19.24,3.7,34.03,4.97,14.78,1.28,34.15,1.91,58.12,1.91h257.71c24.47,0,44.09-.63,58.88-1.91,14.78-1.27,26.12-2.93,34.03-4.97,7.9-2.03,13-4.46,15.29-7.26,2.29-2.8,2.68-5.74,1.15-8.79l-2.29-7.65h.76c1.02,0,2.03-.25,3.06-.76h4.59c2.03,5.1,3.94,10.2,5.74,15.29,1.78,5.1,3.69,10.46,5.74,16.06h6.88v17.59c4.08,10.2,7.77,20.4,11.09,30.59,3.31,10.2,6.75,20.4,10.32,30.59h-1.53c-1.03,0-2.04-.25-3.06-.76h-3.82c-.51,0-.76-.25-.76-.76l-3.82-9.18c-2.56-7.13-6.5-13.76-11.85-19.88-5.35-6.12-13.13-11.34-23.32-15.68-10.2-4.33-23.46-7.77-39.76-10.32-16.32-2.55-36.46-3.82-60.41-3.82h-99.41v476.41c0,28.56,4.59,47.41,13.76,56.59,9.18,9.18,20.9,13.76,35.18,13.76h9.94v1.53c0,.51.12,1.03.38,1.53.25.51.38,1.03.38,1.53,0,1.03.12,1.79.38,2.29.25.51.38,1.03.38,1.53s.25.76.76.76h-195l-.76.76Z"/>
    </g>
  </g>
</svg>